<svg width="13" height="17" viewBox="0 0 13 17" fill="none" xmlns="http://www.w3.org/2000/svg">
<path fill-rule="evenodd" clip-rule="evenodd" d="M1.5 6.54233C1.5 3.75393 3.74228 1.5 6.50027 1.5C9.25825 1.5 11.5005 3.75393 11.5005 6.54233C11.5005 7.19675 11.2306 8.09019 10.7677 9.10436C10.3111 10.1045 9.69199 11.1686 9.04961 12.1463C8.40762 13.1234 7.7496 14.0033 7.22063 14.6347C6.95516 14.9515 6.72887 15.1978 6.55792 15.3607C6.53733 15.3803 6.51811 15.3981 6.50026 15.4143C6.48241 15.3981 6.4632 15.3803 6.44262 15.3607C6.27166 15.1978 6.04537 14.9515 5.7799 14.6347C5.25093 14.0033 4.59291 13.1234 3.95093 12.1463C3.30854 11.1686 2.68945 10.1045 2.23286 9.10436C1.76988 8.09019 1.5 7.19675 1.5 6.54233ZM6.50027 0.5C3.18283 0.5 0.5 3.20884 0.5 6.54233C0.5 7.41838 0.845291 8.47284 1.32316 9.51964C1.80742 10.5804 2.45485 11.6904 3.11518 12.6954C3.7759 13.701 4.45677 14.6125 5.01337 15.2769C5.29068 15.6079 5.54385 15.8856 5.75283 16.0847C5.85626 16.1832 5.9591 16.2724 6.05582 16.3403C6.10408 16.3741 6.1608 16.4098 6.22303 16.4387C6.27827 16.4644 6.37745 16.5037 6.50027 16.5037C6.62308 16.5037 6.72226 16.4644 6.7775 16.4387C6.83973 16.4098 6.89645 16.3741 6.94471 16.3403C7.04143 16.2724 7.14427 16.1832 7.2477 16.0847C7.45669 15.8856 7.70985 15.6079 7.98716 15.2769C8.54376 14.6125 9.22463 13.701 9.88535 12.6954C10.5457 11.6904 11.1931 10.5804 11.6774 9.51964C12.1552 8.47284 12.5005 7.41838 12.5005 6.54233C12.5005 3.20884 9.81771 0.5 6.50027 0.5ZM6.50042 8.50189C7.51299 8.50189 8.33384 7.66222 8.33384 6.62643C8.33384 5.59065 7.51299 4.75098 6.50042 4.75098C5.48785 4.75098 4.667 5.59065 4.667 6.62643C4.667 7.66222 5.48785 8.50189 6.50042 8.50189Z" fill="#FF0000"/>
</svg>
